<svg width="162" height="18" viewBox="0 0 162 18" fill="none" xmlns="http://www.w3.org/2000/svg">
<path d="M2.98977 4.43446C2.87603 4.71398 2.81761 5.01293 2.81777 5.3147V12.7107C2.81711 13.0112 2.87579 13.3088 2.99047 13.5865C3.10514 13.8642 3.27355 14.1166 3.48601 14.329C3.69847 14.5415 3.95081 14.7099 4.22853 14.8246C4.50625 14.9393 4.80389 14.9979 5.10436 14.9973H12.4953C12.7958 14.9979 13.0934 14.9393 13.3711 14.8246C13.6488 14.7099 13.9012 14.5415 14.1136 14.329C14.3261 14.1166 14.4945 13.8642 14.6092 13.5865C14.7239 13.3088 14.7825 13.0112 14.7819 12.7107H17.6148C17.6162 13.3814 17.485 14.0457 17.229 14.6656C16.9729 15.2855 16.597 15.8487 16.1228 16.323C15.6485 16.7972 15.0853 17.1732 14.4654 17.4292C13.8455 17.6853 13.1812 17.8164 12.5105 17.815H5.10436C4.43367 17.8164 3.76932 17.6853 3.14943 17.4292C2.52954 17.1732 1.96632 16.7972 1.49207 16.323C1.01782 15.8487 0.641885 15.2855 0.38584 14.6656C0.129795 14.0457 -0.00132331 13.3814 1.00682e-05 12.7107V5.28941C-0.000286065 4.99435 0.0251046 4.69982 0.0758931 4.40917L2.98977 4.43446ZM12.4953 0.210347C13.1651 0.207018 13.829 0.335826 14.449 0.589395C15.069 0.842965 15.6329 1.21632 16.1085 1.68808C16.584 2.15985 16.9618 2.72077 17.2203 3.33873C17.4788 3.95669 17.6128 4.61957 17.6148 5.28941H14.7819C14.7825 4.98894 14.7239 4.6913 14.6092 4.41358C14.4945 4.13585 14.3261 3.88352 14.1136 3.67106C13.9012 3.45859 13.6488 3.29019 13.3711 3.17552C13.0934 3.06084 12.7958 3.00215 12.4953 3.00282H0.536244C0.959292 2.15721 1.60912 1.44587 2.41313 0.948281C3.21713 0.45069 4.14365 0.186446 5.08918 0.185059L12.4953 0.210347Z" fill="white"/>
<path d="M22.6736 4.43457C22.5599 4.71409 22.5015 5.01303 22.5016 5.3148C22.5003 5.61569 22.5585 5.91388 22.6729 6.19218C22.7873 6.47049 22.9556 6.72343 23.1681 6.93643C23.3806 7.14943 23.6332 7.31828 23.9112 7.43327C24.1893 7.54826 24.4873 7.60712 24.7882 7.60645H32.1792C32.8495 7.60645 33.5132 7.73847 34.1325 7.99499C34.7518 8.25151 35.3145 8.62749 35.7885 9.10148C36.2625 9.57546 36.6384 10.1382 36.895 10.7574C37.1515 11.3767 37.2835 12.0405 37.2835 12.7108C37.2835 13.3811 37.1515 14.0449 36.895 14.6641C36.6384 15.2834 36.2625 15.8461 35.7885 16.3201C35.3145 16.7941 34.7518 17.1701 34.1325 17.4266C33.5132 17.6831 32.8495 17.8151 32.1792 17.8151H20.4427V14.9974H32.164C32.7225 14.9328 33.2377 14.6652 33.6117 14.2454C33.9857 13.8257 34.1923 13.2831 34.1923 12.7209C34.1923 12.1587 33.9857 11.6161 33.6117 11.1964C33.2377 10.7767 32.7225 10.509 32.164 10.4444H24.773C24.0259 10.4443 23.2879 10.2803 22.611 9.96401C21.9341 9.64771 21.3348 9.1868 20.8554 8.61378C20.3759 8.04076 20.028 7.36955 19.836 6.64748C19.6441 5.9254 19.6129 5.17002 19.7446 4.43457H22.6736ZM36.5095 0.210449V3.02822H20.2201C20.6432 2.18261 21.293 1.47127 22.097 0.97368C22.901 0.476089 23.8275 0.211836 24.773 0.210449H36.5095Z" fill="#FF4444"/>
<path d="M62.4967 0.185059C63.244 0.185059 63.9607 0.481926 64.4891 1.01036C65.0176 1.53879 65.3144 2.2555 65.3144 3.00282V17.7897H62.4967V11.8052H50.5275V8.9874H62.4967V3.00282H47.7148C47.7141 2.63302 47.7864 2.26673 47.9274 1.92489C48.0685 1.58306 48.2756 1.27239 48.5368 1.01067C48.7981 0.748948 49.1084 0.541311 49.4499 0.399643C49.7915 0.257975 50.1577 0.185058 50.5275 0.185059H62.4967ZM50.5275 4.43446V17.7897H47.7148V4.43446H50.5275Z" fill="white"/>
<path d="M81.3863 0.185059C82.74 0.185059 84.0383 0.722836 84.9956 1.68009C85.9528 2.63734 86.4906 3.93565 86.4906 5.2894C86.4906 6.64316 85.9528 7.94147 84.9956 8.89872C84.0383 9.85597 82.74 10.3938 81.3863 10.3938H81.3559L85.6003 17.7897H82.3677L78.1284 10.3938H71.7087V17.7897H68.891V4.43446H71.7087V7.60128H81.3863C81.9748 7.57361 82.53 7.32035 82.9367 6.89409C83.3434 6.46783 83.5703 5.90131 83.5703 5.31217C83.5703 4.72302 83.3434 4.15651 82.9367 3.73025C82.53 3.30398 81.9748 3.05073 81.3863 3.02306H68.891V0.185059H81.3863Z" fill="white"/>
<path d="M104.085 0.185063C104.455 0.184397 104.822 0.256819 105.164 0.398189C105.507 0.539559 105.817 0.747087 106.079 1.00887C106.341 1.27066 106.548 1.58156 106.69 1.92372C106.831 2.26589 106.904 2.6326 106.903 3.00282V17.7897H104.085V11.8052H92.1211V8.98741H104.085V3.00282H89.3033C89.3027 2.6326 89.3751 2.26589 89.5165 1.92372C89.6579 1.58156 89.8654 1.27066 90.1272 1.00887C90.389 0.747087 90.6998 0.539559 91.042 0.398189C91.3842 0.256819 91.7509 0.184397 92.1211 0.185063H104.085ZM92.1211 4.43447V17.7897H89.3033V4.43447H92.1211Z" fill="white"/>
<path d="M122.98 0.185059C124 0.185548 124.997 0.491025 125.842 1.06225C126.687 1.63347 127.342 2.44434 127.722 3.39066C128.103 4.33698 128.192 5.37551 127.978 6.37283C127.764 7.37014 127.257 8.28066 126.521 8.9874C127.259 9.69311 127.769 10.6038 127.984 11.602C128.2 12.6001 128.111 13.64 127.73 14.5873C127.349 15.5347 126.693 16.3461 125.846 16.917C124.999 17.4878 124.001 17.7918 122.98 17.7897H110.48V4.43446H113.297V7.60128H122.975C123.285 7.61584 123.594 7.56742 123.884 7.45895C124.175 7.35049 124.44 7.18422 124.664 6.97023C124.889 6.75623 125.067 6.49894 125.189 6.21395C125.311 5.92895 125.374 5.62217 125.374 5.31217C125.374 5.00216 125.311 4.69538 125.189 4.41039C125.067 4.12539 124.889 3.86811 124.664 3.65411C124.44 3.44011 124.175 3.27385 123.884 3.16538C123.594 3.05691 123.285 3.00849 122.975 3.02306H110.48V0.185059H122.98ZM113.297 14.972H122.98C123.538 14.9074 124.054 14.6398 124.428 14.22C124.802 13.8003 125.008 13.2577 125.008 12.6955C125.008 12.1333 124.802 11.5908 124.428 11.171C124.054 10.7513 123.538 10.4836 122.98 10.419H113.297V14.972Z" fill="white"/>
<path d="M140.832 0.185059V3.00282H137.033V14.972H140.832V17.7897H130.426V14.972H134.226V0.185059H140.832ZM132.809 0.185059V3.00282H130.426V0.185059H132.809Z" fill="white"/>
<path d="M158.351 0.185059C159.099 0.185059 159.815 0.481926 160.344 1.01036C160.872 1.53879 161.169 2.2555 161.169 3.00282V17.7897H158.351V11.8052H146.382V8.9874H158.351V3.00282H143.579C143.579 2.2555 143.876 1.53879 144.405 1.01036C144.933 0.481926 145.65 0.185059 146.397 0.185059H158.351ZM146.382 4.43446V17.7897H143.579V4.43446H146.382Z" fill="white"/>
</svg>
